<svg width="200" height="200" viewBox="0 0 24 24" xmlns="http://www.w3.org/2000/svg">
8         <path d="M12 2C6.48 2 2 6.48 2 12s4.48 10 10 10 10-4.48 10-10S17.52 2 12 2zm0 18c-4.41
0-8-3.59-8-8s3.59-8 8-8 8 3.59 8 8-3.59 8-8 8z" fill="#F24E1E"/>
9         <path d="M12 7c-2.76 0-5 2.24-5 5s2.24 5 5 5 5-2.24 5-5-2.24-5-5-5zm0 8c-1.65
0-3-1.35-3-3s1.35-3 3-3 3 1.35 3 3-1.35 3-3 3z" fill="#A259FF"/>
10         <path d="M12 9c-1.65 0-3 1.35-3 3s1.35 3 3 3V9z" fill="#1ABCFE"/>
11         <path d="M12 9v6c1.65 0 3-1.35 3-3s-1.35-3-3-3z" fill="#0ACF83"/>
12         <path d="M9 12c0-1.65 1.35-3 3-3v3H9z" fill="#FF7262"/>
13     </svg>