<svg width="200" height="200" viewBox="0 0 24 24" xmlns="http://www.w3.org/2000/svg">
    8         <path fill="#F05032" d="M22.55 10.38L13.62.45a2.33 2.33 0 0 0-3.24 0L1.45 9.38a2.33
      2.33 0 0 0 0 3.24l8.93 8.93a2.33 2.33 0 0 0 3.24 0l8.93-8.93a2.33 2.33 0 0 0 0-3.24zM12
      19.41L5.59 13H12v6.41zm0-8.82H5.59L12 4.18v6.41zm1-6.41v6.41H18.4L13 4.18zm0 8.82v6.41L18.4
      13H13z"/>
    9         <path fill="#FFFFFF" d="M12 13.41V19.4L5.59 13H12v.41zM12 4.18L5.59 10.6H12V4.18zM13
      4.18v6.42h5.41L13 4.18zm0 15.23v-6.42h5.41L13 19.41z"/>
   10     </svg>