 <svg width="200" height="200" viewBox="0 0 24 24" xmlns="http://www.w3.org/2000/svg">
    8         <path fill="#FFB45E" d="M12 2C6.48 2 2 6.48 2 12s4.48 10 10 10 10-4.48 10-10S17.52 2 12
      2zm-1.28 15.27l-3.01-3.01 1.41-1.41 1.6 1.6 4.6-4.6 1.41 1.41-6.01 6.01z"/>
    9         <path fill="#F7C75A" d="M12 4c-4.41 0-8 3.59-8 8s3.59 8 8 8 8-3.59 8-8-3.59-8-8-8zm0
      14c-3.31 0-6-2.69-6-6s2.69-6 6-6 6 2.69 6 6-2.69 6-6 6z"/>
   10         <path fill="#F19A3E" d="M10.72 17.27l-3.01-3.01 1.41-1.41 1.6 1.6 4.6-4.6 1.41
      1.41-6.01 6.01z"/>
   11     </svg>